<svg width="64" height="64" viewBox="0 0 64 64" fill="none" xmlns="http://www.w3.org/2000/svg">
<rect width="64" height="64" rx="20" fill="url(#paint0_linear_1_496)"/>
<path d="M54.3454 27.6778C54.4677 28.0633 54.5474 28.3711 54.5843 28.6011C54.624 28.8463 54.658 29.2491 54.6863 29.8094C54.7205 30.4702 54.6306 31.1307 54.4167 31.791C54.2235 32.3865 53.8558 32.9288 53.4765 33.4106C53.3418 33.581 53.2022 33.7273 53.0576 33.8495C52.2711 34.511 51.223 34.986 50.1995 34.9651C49.9724 34.9604 49.5981 34.9045 49.0766 34.7974C48.7756 34.7357 48.4921 34.7067 48.2235 34.6497C48.2139 34.6476 48.2039 34.648 48.1945 34.6507C48.1851 34.6533 48.1764 34.6583 48.1694 34.6651C48.1623 34.672 48.157 34.6804 48.154 34.6898C48.1509 34.6991 48.1502 34.7091 48.1519 34.7189C48.2183 35.1144 48.2682 35.4247 48.3633 35.7812C49.2254 38.996 49.5458 40.1388 49.6784 40.6607C49.8667 41.4015 50.0004 42.1248 49.9583 42.864C49.9405 43.1781 49.9255 43.3808 49.9135 43.4723C49.8674 43.8228 49.7858 44.1946 49.6688 44.5876C49.5401 45.0209 49.311 45.3926 49.0742 45.7503C48.9729 45.9033 48.8141 46.0726 48.5976 46.258C48.3082 46.5065 48.127 46.6529 48.0539 46.6973C47.922 46.7778 47.7242 46.9119 47.4604 47.0996C46.6522 47.6733 45.6268 48.0754 44.5432 48.4809C43.3403 48.9315 42.1205 49.345 40.8837 49.7212C40.2483 49.9248 39.6731 50.0852 39.1582 50.2023C38.3721 50.3809 37.6988 50.2159 37.1384 49.7074C36.7051 49.3137 36.4794 48.7881 36.4833 48.2127C36.4849 47.9792 36.5051 47.7944 36.5441 47.6584C36.6845 47.1699 36.8495 46.6915 36.8075 46.2092C36.7435 45.4708 36.6661 44.9706 36.0605 44.4803C35.7636 44.2396 35.4069 43.9741 35.0548 43.9004C34.1382 43.7094 33.0694 43.7319 32.2309 44.1766C31.9343 44.3343 31.5927 44.5808 31.2064 44.9161C30.976 45.1159 30.8084 45.3142 30.7035 45.511C30.4322 46.019 30.3176 46.5809 30.5116 47.1391C30.5821 47.3423 30.6753 47.5742 30.7914 47.8349C30.8652 47.9998 31.0461 48.2613 31.144 48.3529C31.3786 48.5723 31.5991 48.7931 31.8054 49.0156C32.2593 49.5054 32.4783 50.2026 32.2862 50.856C32.0415 51.6894 31.4982 52.2275 30.6563 52.4703C30.0548 52.6439 29.2909 52.8286 28.3646 53.0243C26.9289 53.3281 25.54 53.5766 24.1979 53.7695C23.6074 53.8542 22.8824 53.8872 22.023 53.8686C21.493 53.8526 21.0505 53.8139 20.6956 53.7527C19.7981 53.5966 19.0163 53.1496 18.35 52.4116C18.2298 52.2782 18.093 52.1202 17.9396 51.9377C17.3012 51.178 16.9757 50.3131 16.589 49.2827C16.3436 48.6279 16.0484 47.8874 15.7807 47.1108C15.3617 45.893 15.1926 45.5573 14.9193 44.6525C14.8025 44.2842 14.6946 43.8344 14.5958 43.3031C14.4732 42.6448 14.5908 42.0687 14.9485 41.5748C15.3484 41.0224 15.9108 40.7378 16.6357 40.7208C16.7567 40.7181 16.8927 40.7434 17.0436 40.797C17.3319 40.9002 17.7 41.0357 18.0227 41.0496C18.5657 41.0725 19.3565 40.9801 19.7988 40.6573C20.1566 40.3958 20.4699 39.9523 20.5681 39.5438C20.7085 38.9623 20.7586 38.3878 20.7182 37.8205C20.679 37.2725 20.5164 36.7583 20.2303 36.2781C19.9484 35.8055 19.6263 35.292 19.1992 35.0197C18.786 34.7565 18.038 34.4544 17.5203 34.6013C16.9337 34.7685 16.4956 35.0033 16.0906 35.405C15.8362 35.6584 15.6202 35.9384 15.3421 36.1066C14.8315 36.4147 14.3084 36.4868 13.7729 36.3229C12.7223 36.0023 12.2716 35.0571 12.0585 34.0474C11.9062 33.3248 11.7416 32.5603 11.5648 31.7537C11.2963 30.529 11.0806 29.2936 10.9179 28.0474L10.8243 26.7105C10.8237 26.6995 10.8244 26.6891 10.8265 26.6801C10.8286 26.671 10.8321 26.6634 10.8366 26.6577L10.8399 26.6549C10.8446 26.6511 10.8485 26.6463 10.851 26.6409C10.8536 26.6354 10.8548 26.6295 10.8546 26.6235C10.8203 25.7515 10.9084 24.9667 11.2579 24.2267C11.3368 24.06 11.4275 23.9122 11.53 23.7834C11.7251 23.539 11.889 23.2875 12.1267 23.0486C12.1831 22.9921 12.281 22.8886 12.4201 22.738C12.7711 22.3572 13.1508 22.0407 13.5592 21.7882C13.7904 21.6457 14.0631 21.5233 14.3774 21.4211C14.4515 21.397 14.737 21.3028 15.2339 21.1388C15.5241 21.0425 15.9213 20.8942 16.4257 20.6938C16.8733 20.516 17.2724 20.3721 17.6231 20.262C19.0955 19.8007 20.3354 19.4526 21.5457 19.0414C21.5518 19.0394 21.5573 19.0358 21.5616 19.0309C21.5659 19.0261 21.569 19.0202 21.5704 19.0139C21.5719 19.0075 21.5717 19.0008 21.5699 18.9944C21.5682 18.9881 21.5648 18.9822 21.5603 18.9774C21.368 18.7807 21.1631 18.5501 20.9455 18.2857C20.9119 18.2451 20.8729 18.2 20.8285 18.1503C20.5811 17.8764 20.3139 17.5663 20.1394 17.245C19.7171 16.4676 19.5302 15.657 19.5786 14.8134C19.5981 14.4775 19.6738 14.094 19.8057 13.6627C19.9293 13.2613 20.071 12.8965 20.2308 12.5684C20.472 12.0744 20.8357 11.7217 21.2888 11.3259C21.4954 11.1449 21.7115 10.9743 21.937 10.8141C22.6867 10.2727 23.5268 9.93983 24.4575 9.81562C24.5138 9.80778 24.6895 9.79096 24.9846 9.76516C25.1481 9.75069 25.324 9.74697 25.5124 9.75398C25.5723 9.7559 25.8045 9.76463 26.2091 9.78016C26.6143 9.79505 27.0954 9.92643 27.6522 10.1743C28.2473 10.4391 28.7932 10.7857 29.2898 11.214C29.8145 11.6656 30.1601 12.362 30.4248 13.0391C30.5754 13.4243 30.6663 13.8349 30.6973 14.271C30.7174 14.5501 30.6754 14.9429 30.5714 15.4497C30.4701 15.9419 30.3901 16.3306 30.3312 16.6159C30.3289 16.6275 30.3296 16.6394 30.3331 16.6507C30.3366 16.662 30.3429 16.6722 30.3513 16.6804C30.3598 16.6885 30.3701 16.6944 30.3814 16.6975C30.3927 16.7005 30.4045 16.7006 30.4158 16.6977C32.2526 16.2425 33.7694 15.9285 35.7973 15.5509C36.4748 15.425 37.0807 15.2701 37.6673 15.1891C37.7992 15.1706 37.9286 15.1605 38.0557 15.1588C38.1745 15.1576 38.262 15.1553 38.3183 15.1519C38.646 15.133 38.9525 15.1706 39.313 15.2487C39.5051 15.2908 39.7472 15.3368 40.0393 15.3867C40.5005 15.466 40.963 15.6246 41.4268 15.8624C41.4514 15.875 41.6296 16.0026 41.9614 16.2452C42.1381 16.3747 42.2903 16.5239 42.4179 16.6928C42.669 17.0255 42.8404 17.2714 42.9322 17.4307C43.1583 17.8248 43.3161 18.108 43.4056 18.2803C43.5859 18.6277 43.7516 19.0523 43.9027 19.5542C44.0642 20.0911 44.2686 20.8221 44.516 21.7472C44.7625 22.6693 44.9466 23.3226 45.0682 23.707C45.3246 24.5164 45.5332 25.1628 45.6939 25.646C45.6964 25.6533 45.7007 25.6599 45.7065 25.665C45.7124 25.6701 45.7194 25.6736 45.727 25.6752C45.7345 25.6767 45.7423 25.6762 45.7496 25.6737C45.7569 25.6712 45.7633 25.6668 45.7684 25.661C45.8466 25.5693 45.915 25.493 46.0191 25.4139C46.36 25.1562 46.6591 24.9018 46.9164 24.6507C47.4997 24.0806 48.5175 23.7808 49.2556 23.8127C49.7373 23.8335 50.2225 23.895 50.7111 23.9969C51.3566 24.1321 51.8745 24.3907 52.2648 24.7728C52.2846 24.7921 52.5463 25.045 53.0498 25.5316C53.6691 26.1301 54.101 26.8455 54.3454 27.6778ZM16.0811 44.2957C16.5148 45.7658 16.8104 46.4976 17.3221 47.9421C17.6832 48.8944 18.0588 49.8663 18.5616 50.7583C19.0803 51.6794 19.8865 52.3003 20.9195 52.5533C21.8401 52.7787 22.6983 52.7118 23.697 52.5896C25.5463 52.3626 27.3728 52.0338 29.1764 51.6033C29.5683 51.5098 29.9796 51.393 30.4103 51.2527C30.7047 51.1571 30.9932 50.9956 31.1033 50.6876C31.2169 50.3706 30.9762 49.9198 30.7662 49.6814C30.6108 49.5043 30.4252 49.3094 30.2096 49.0965C29.8115 48.7029 29.554 48.2171 29.3819 47.6885C29.1098 46.8536 29.2143 45.7114 29.6614 44.9542C29.9817 44.4112 30.2758 44.0074 30.7469 43.6784C31.7251 42.9942 32.8029 42.6257 33.9805 42.5727C35.144 42.5196 36.5118 43.0133 37.239 43.954C37.9569 44.8828 38.1826 45.9164 37.9162 47.0546C37.8745 47.2328 37.8131 47.4893 37.7322 47.8241C37.6785 48.0448 37.6824 48.2657 37.7439 48.4869C37.9209 49.1244 38.5105 49.0815 39.0268 48.9637C39.3738 48.8844 39.6693 48.8099 39.9131 48.7403C41.8445 48.1879 43.7405 47.518 45.6008 46.7305C45.9561 46.58 46.2924 46.4165 46.6096 46.2399C47.8773 45.5348 48.9825 44.0713 48.768 42.5425C48.6527 41.7209 48.4605 40.7803 48.1914 39.7207C48.1256 39.4609 48.0092 39.1056 47.4881 37.2037C47.4669 37.1268 47.3341 36.6217 47.0898 35.6883C46.958 35.184 46.9215 34.6959 46.9804 34.2238C47.0598 33.5884 47.6541 33.3636 48.2303 33.4064C48.7356 33.4447 49.4627 33.7382 50.0518 33.7595C50.9237 33.7918 51.6923 33.4862 52.3577 32.8428C52.6755 32.5355 52.9067 32.2174 53.0512 31.8884C53.4826 30.906 53.6923 29.7379 53.4098 28.6777C53.219 27.9601 52.9157 27.2992 52.5 26.6952C51.9777 25.9696 51.2073 25.4101 50.3545 25.1406C49.4255 24.8472 48.4309 25.0606 47.6267 25.5905C47.2546 25.8358 46.9288 26.2305 46.5792 26.5547C46.1144 26.9857 45.4677 27.1568 44.9478 26.6979C44.679 26.4605 44.4497 25.8629 44.3477 25.5196C43.8982 24.0074 43.3463 22.0759 42.692 19.7254C42.3461 18.4849 41.5753 17.2282 40.3536 16.7071C39.5141 16.3491 38.5063 16.3441 37.5674 16.4712C35.2604 16.7846 32.904 17.3524 30.813 17.843C30.0921 18.0125 29.3609 17.9741 29.1229 17.1301C28.9512 16.5219 29.2986 16.0004 29.397 15.3519C29.5969 14.0292 29.3126 12.8813 28.3066 11.9613C27.1763 10.9278 25.3334 10.7361 23.9462 11.1688C22.8528 11.5101 21.9948 12.1439 21.3722 13.0701C20.8832 13.7976 20.6301 14.7319 20.8167 15.6016C20.9435 16.1937 21.1872 16.7228 21.548 17.189C21.8034 17.5196 22.1336 17.7828 22.4238 18.0895C22.8208 18.5088 23.114 19.1316 22.7358 19.6693C22.5604 19.9182 22.3159 20.0897 22.0025 20.1836C20.3678 20.6736 19.082 21.0676 18.1452 21.3655C16.7441 21.8105 15.6293 22.1889 14.4462 22.7473C13.9118 23.0002 13.446 23.3336 13.049 23.7475C11.4966 25.368 12.0439 27.8726 12.4202 29.8425C12.7089 31.3515 12.9656 32.5972 13.1903 33.5796C13.267 33.914 13.3758 34.2519 13.5168 34.5933C13.7704 35.2071 14.3908 35.3692 14.8821 34.9452C15.1362 34.7253 15.4272 34.3785 15.6902 34.1743C16.421 33.6091 17.4421 33.287 18.3682 33.4294C18.8821 33.5086 19.3699 33.7042 19.8315 34.0161C20.2492 34.2982 20.5765 34.6021 20.8134 34.9279C21.5864 35.9905 21.9675 37.1809 21.9565 38.499C21.9385 40.6224 20.4634 42.3326 18.2699 42.2642C17.8343 42.2502 17.403 42.1342 16.9966 42.0168C16.7853 41.9562 16.6196 41.9362 16.4994 41.957C16.2939 41.9929 16.0388 42.0667 15.9139 42.251C15.8115 42.4016 15.7617 42.5526 15.7645 42.7038C15.774 43.2143 15.8796 43.7449 16.0811 44.2957Z" fill="#982F34"/>
<path d="M16.0812 44.295C16.5148 45.7651 16.7072 46.6402 17.219 48.0847C17.58 49.037 17.9556 50.0089 18.4584 50.9009C18.9771 51.822 19.7833 52.4429 20.8163 52.6959C21.7369 52.9213 22.5951 52.8544 23.5938 52.7322C25.4431 52.5052 27.4465 52.0686 29.2501 51.638C29.642 51.5446 30.0534 51.4277 30.484 51.2875C30.7784 51.1919 31.0669 51.0303 31.177 50.7223C31.2906 50.4053 31.0499 49.9545 30.84 49.7161C30.6845 49.539 30.4989 49.3441 30.2833 49.1313C29.8853 48.7376 29.6278 48.2518 29.4557 47.7233C29.1835 46.8884 29.1111 45.854 29.5582 45.0968C29.8785 44.5538 30.1726 44.1501 30.6437 43.821C31.6219 43.1369 32.6997 42.7683 33.8772 42.7153C35.0408 42.6622 36.4085 43.1559 37.1358 44.0966C37.8536 45.0254 38.0793 46.059 37.813 47.1972C37.7712 47.3754 37.7099 47.6319 37.629 47.9667C37.5752 48.1874 37.5791 48.4083 37.6407 48.6295C37.8176 49.267 38.4073 49.2241 38.9235 49.1063C39.2706 49.027 39.566 48.9526 39.8098 48.8829C41.7413 48.3306 43.6372 47.6606 45.4976 46.8732C45.8528 46.7226 46.1891 46.5591 46.5063 46.3825C47.774 45.6774 48.8792 44.2139 48.6647 42.6851C48.5494 41.8636 48.3572 40.923 48.0881 39.8633C48.0223 39.6036 48.0091 39.1049 47.488 37.203C47.4668 37.1262 47.3341 36.621 47.0898 35.6876C46.9579 35.1833 46.9214 34.6952 46.9803 34.2232C47.0597 33.5877 47.654 33.363 48.2303 33.4057C48.7355 33.444 49.4626 33.7375 50.0517 33.7589C50.9236 33.7911 51.6922 33.4855 52.3576 32.8421C52.6754 32.5348 52.9066 32.2167 53.0511 31.8877C53.4825 30.9054 53.6922 29.7372 53.4097 28.6771C53.2189 27.9594 52.9156 27.2986 52.4999 26.6946C51.9776 25.9689 51.2072 25.4094 50.3545 25.1399C49.4255 24.8466 48.4308 25.06 47.6267 25.5898C47.2545 25.8351 46.9287 26.2299 46.5792 26.554C46.1143 26.985 45.4677 27.1562 44.9477 26.6973C44.6789 26.4598 44.4496 25.8622 44.3476 25.519C43.8981 24.0067 43.3462 22.0753 42.6919 19.7248C42.3461 18.4843 41.5753 17.2276 40.3535 16.7065C39.5141 16.3485 38.5062 16.3435 37.5673 16.4706C35.2604 16.784 32.9039 17.3518 30.813 17.8424C30.0921 18.0119 29.3609 17.9735 29.1229 17.1295C28.9512 16.5213 29.2985 15.9998 29.397 15.3513C29.5969 14.0286 29.3126 12.8807 28.3066 11.9607C27.1763 10.9272 25.3334 10.7356 23.9462 11.1682C22.8528 11.5095 21.9948 12.1433 21.3722 13.0695C20.8832 13.797 20.6302 14.7314 20.8167 15.601C20.9435 16.1931 21.1872 16.7222 21.548 17.1884C21.8034 17.519 22.1336 17.7822 22.4238 18.0889C22.8208 18.5082 23.114 19.131 22.7358 19.6686C22.5604 19.9176 22.316 20.089 22.0025 20.183C20.3678 20.673 19.082 21.0669 18.1452 21.3648C16.7441 21.8099 15.6293 22.1883 14.4462 22.7466C13.9118 22.9996 13.4461 23.333 13.049 23.7469C11.4966 25.3673 12.044 27.872 12.4202 29.8418C12.7089 31.3509 12.9656 32.5966 13.1904 33.5789C13.267 33.9133 13.3758 34.2512 13.5168 34.5926C13.7704 35.2065 14.3908 35.3685 14.8821 34.9445C15.1363 34.7246 15.4272 34.3779 15.6902 34.1736C16.4211 33.6085 17.4422 33.2864 18.3682 33.4288C18.8821 33.508 19.3699 33.7035 19.8315 34.0154C20.2492 34.2976 20.5765 34.6015 20.8134 34.9272C21.5864 35.9898 21.9675 37.1802 21.9565 38.4983C21.9385 40.6217 20.4634 42.3319 18.2699 42.2635C17.8343 42.2495 17.403 42.1335 16.9966 42.0161C16.7853 41.9555 16.6196 41.9355 16.4994 41.9563C16.2939 41.9922 16.0388 42.066 15.9139 42.2503C15.8115 42.4009 15.7618 42.5519 15.7645 42.7031C15.7741 43.2136 15.8796 43.7442 16.0812 44.295Z" fill="url(#paint1_linear_1_496)"/>
<path d="M52.5086 26.6861C52.9249 27.2915 53.2286 27.954 53.4198 28.6733C53.7028 29.736 53.4926 30.907 53.0606 31.8917C52.9158 32.2215 52.6844 32.5404 52.3661 32.8484C51.6996 33.4933 50.9298 33.7996 50.0565 33.7674C49.4665 33.746 48.7383 33.4517 48.2323 33.4134C47.6551 33.3705 47.0599 33.5958 46.9804 34.2328C46.9214 34.7059 46.9579 35.1952 47.09 35.7007C47.3347 36.6364 47.4676 37.1427 47.4889 37.2197C47.7179 38.5212 48.0118 39.6047 48.0777 39.865C48.3472 40.9272 48.5397 41.8701 48.6552 42.6936C48.8701 44.2261 47.7631 45.6931 46.4935 46.3999C46.1758 46.5769 45.839 46.7408 45.4832 46.8917C43.6199 47.6811 41.721 48.3526 39.7866 48.9063C39.5424 48.9761 39.2465 49.0508 38.8989 49.1302C38.3818 49.2483 37.7913 49.2914 37.6141 48.6523C37.5524 48.4305 37.5485 48.2091 37.6023 47.9879C37.6834 47.6523 37.7448 47.3952 37.7866 47.2165C38.0534 46.0756 37.8273 45.0396 37.1084 44.1085C36.38 43.1656 35.0101 42.6707 33.8448 42.7239C32.6654 42.777 31.5859 43.1464 30.6062 43.8322C30.1344 44.1621 29.8398 44.5668 29.519 45.1111C29.0712 45.8701 29.1438 46.907 29.4164 47.7439C29.5887 48.2737 29.8467 48.7607 30.2453 49.1553C30.4613 49.3686 30.6471 49.564 30.8028 49.7415C31.0131 49.9805 31.2542 50.4324 31.1404 50.7501C31.0302 51.0589 30.7412 51.2208 30.4464 51.3166C30.015 51.4572 29.6031 51.5744 29.2105 51.668C27.4041 52.0996 25.3975 52.5373 23.5453 52.7648C22.5451 52.8874 21.6855 52.9544 20.7635 52.7285C19.7289 52.4748 18.9214 51.8525 18.402 50.9291C17.8984 50.035 17.5222 49.0608 17.1606 48.1062C17.2072 48.0388 17.2642 48.0199 17.3316 48.0493C17.3504 48.0579 17.3669 48.0713 17.3793 48.0882C17.8942 48.795 18.3567 49.3965 18.9137 49.8502C19.7524 50.5339 20.8518 50.771 21.9552 50.7892C22.5031 50.7977 22.9759 50.7769 23.3736 50.727C25.0208 50.5205 26.5852 50.2442 28.0669 49.898C28.5457 49.7861 29.2228 49.6617 29.0931 49.0361C29.0609 48.8807 29.0161 48.7577 28.9588 48.667C28.0474 47.226 27.7817 45.1455 28.6903 43.6514C28.9216 43.2709 29.0725 43.042 29.143 42.9648C30.2983 41.7006 31.6985 41.0393 33.3435 40.9808C34.8295 40.9274 36.5818 41.5967 37.4727 42.9072C37.9735 43.6432 38.5492 44.3241 38.5548 45.4068C38.3809 46.5937 38.5556 46.8559 38.6249 46.9936C38.7042 47.151 39.1014 46.975 39.2551 46.9381C39.5815 46.8607 39.9719 46.748 40.426 46.6C41.7326 46.1729 42.7356 45.7673 43.9745 45.1806C45.5965 44.4136 46.7412 43.1603 46.5952 41.2423C46.5644 40.8372 46.5043 40.4554 46.415 40.0967C46.2024 39.2454 45.8333 37.8004 45.6005 36.3668C45.3814 35.5163 45.1676 34.6826 45.1405 33.8059C45.1643 33.0564 45.3759 32.3467 45.9108 31.8292C46.2779 31.4736 46.906 31.2738 47.3925 31.2422C47.9431 31.2064 48.4752 31.3142 49.0991 31.4044C49.4033 31.4486 49.6451 31.4634 49.8243 31.4488C50.5041 31.3936 51.0775 31.15 51.5446 30.7179C52.0196 30.2789 52.3564 29.7192 52.555 29.0387C52.5887 28.9238 52.617 28.7452 52.6398 28.5028C52.6485 28.4116 52.6691 28.2316 52.7017 27.9629C52.7555 27.5166 52.6911 27.091 52.5086 26.6861Z" fill="#F7DCDB"/>
<path d="M24.4062 28.6282C25.0429 28.5665 25.6817 28.7643 26.1821 29.178C26.6825 29.5918 27.0036 30.1876 27.0747 30.8344C27.1457 31.4813 26.9609 32.1261 26.561 32.6271C26.161 33.1281 25.5786 33.4442 24.942 33.5059C24.3053 33.5676 23.6665 33.3699 23.166 32.9561C22.6656 32.5424 22.3445 31.9465 22.2735 31.2997C22.2024 30.6529 22.3872 30.008 22.7872 29.507C23.1871 29.006 23.7695 28.6899 24.4062 28.6282ZM24.4545 30.3607C24.4299 30.2705 24.3879 30.1857 24.3311 30.1113C24.2742 30.0369 24.2036 29.9743 24.1231 29.927C24.0427 29.8798 23.9541 29.8489 23.8623 29.836C23.7705 29.8232 23.6774 29.8286 23.5882 29.8521C23.4991 29.8756 23.4157 29.9166 23.3427 29.9729C23.2698 30.0291 23.2088 30.0995 23.1631 30.1799C23.1175 30.2603 23.0881 30.3493 23.0768 30.4417C23.0654 30.534 23.0722 30.6281 23.0968 30.7183C23.1465 30.9006 23.2657 31.0567 23.4281 31.152C23.5906 31.2474 23.783 31.2744 23.963 31.227C24.1431 31.1795 24.296 31.0616 24.3881 30.8992C24.4803 30.7367 24.5042 30.5431 24.4545 30.3607Z" fill="#982F34"/>
<path d="M36.5917 25.3638C37.2286 25.3055 37.8662 25.5065 38.3644 25.9226C38.8625 26.3387 39.1804 26.9358 39.248 27.5825C39.3157 28.2293 39.1276 28.8727 38.7251 29.3713C38.3226 29.8698 37.7387 30.1827 37.1019 30.241C36.4651 30.2993 35.8274 30.0983 35.3293 29.6822C34.8311 29.2661 34.5132 28.669 34.4456 28.0222C34.3779 27.3755 34.566 26.7321 34.9685 26.2335C35.371 25.7349 35.9549 25.4221 36.5917 25.3638ZM35.3692 26.8595C35.3171 26.9338 35.2804 27.0183 35.2613 27.108C35.2423 27.1976 35.2412 27.2908 35.2581 27.3821C35.275 27.4734 35.3095 27.5611 35.3598 27.6402C35.4101 27.7192 35.4751 27.7881 35.5511 27.8429C35.6271 27.8976 35.7127 27.9372 35.8029 27.9593C35.893 27.9815 35.9861 27.9857 36.0767 27.9718C36.1673 27.958 36.2537 27.9262 36.331 27.8785C36.4082 27.8307 36.4748 27.7678 36.5269 27.6934C36.5791 27.6191 36.6157 27.5346 36.6348 27.4449C36.6539 27.3553 36.655 27.2621 36.6381 27.1708C36.6212 27.0795 36.5866 26.9918 36.5363 26.9127C36.486 26.8337 36.421 26.7648 36.345 26.71C36.269 26.6553 36.1834 26.6157 36.0933 26.5936C36.0031 26.5714 35.91 26.5672 35.8194 26.5811C35.7288 26.595 35.6424 26.6267 35.5652 26.6744C35.4879 26.7222 35.4213 26.7851 35.3692 26.8595Z" fill="#982F34"/>
<path d="M35.4461 35.9484C34.9074 36.4232 34.257 36.9092 33.57 37.1711C33.2082 37.3096 32.7817 37.4256 32.2906 37.519C31.6687 37.6381 31.0569 37.5882 30.4443 37.5025C30.0319 37.4454 29.6036 37.318 29.1595 37.1201C28.9427 37.0236 28.7227 36.9241 28.4997 36.8216C28.1033 36.629 27.6913 36.429 27.6475 35.9265C27.5986 35.3662 28.2306 35.0407 28.6911 35.319C28.8303 35.4038 28.9743 35.4966 29.1229 35.5973C29.5478 35.8865 29.9753 36.002 30.5766 36.1405C31.1243 36.266 31.7016 36.2535 32.3085 36.1029C33.011 35.928 33.5669 35.736 34.0772 35.3093C34.2862 35.1345 34.4886 34.9454 34.6843 34.742C35.0347 34.3767 35.1778 34.0761 35.4434 33.5569C35.5228 33.4011 35.6579 33.2931 35.8488 33.233C36.3761 33.0661 36.85 33.5547 36.7217 34.082C36.6642 34.3202 36.533 34.4981 36.4039 34.7031C36.1247 35.1457 35.8055 35.5608 35.4461 35.9484Z" fill="#982F34"/>
<defs>
<linearGradient id="paint0_linear_1_496" x1="64" y1="0" x2="9.22034" y2="56.2441" gradientUnits="userSpaceOnUse">
<stop stop-color="#FF673A"/>
<stop offset="1" stop-color="#BF3732"/>
</linearGradient>
<linearGradient id="paint1_linear_1_496" x1="27.6263" y1="10.1865" x2="38.1985" y2="49.983" gradientUnits="userSpaceOnUse">
<stop stop-color="#FEFBF9"/>
<stop offset="1" stop-color="#FDF3F3"/>
</linearGradient>
</defs>
</svg>
