<svg width="16" height="16" viewBox="0 0 16 16" fill="none" xmlns="http://www.w3.org/2000/svg">
<path d="M6.66699 8.83301C6.94288 8.83318 7.16682 9.05712 7.16699 9.33301V14C7.16699 14.276 6.94299 14.4998 6.66699 14.5H2C1.72386 14.5 1.5 14.2761 1.5 14V9.33301C1.50018 9.05702 1.72397 8.83301 2 8.83301H6.66699ZM14 8.83301C14.276 8.83301 14.4998 9.05702 14.5 9.33301V14C14.5 14.2761 14.2761 14.5 14 14.5H9.33301C9.05702 14.4998 8.83301 14.276 8.83301 14V9.33301C8.83318 9.05712 9.05712 8.83318 9.33301 8.83301H14ZM2.5 13.5H6.16699V9.83301H2.5V13.5ZM9.83301 13.5H13.5V9.83301H9.83301V13.5ZM6.66699 1.5C6.94299 1.50018 7.16699 1.72397 7.16699 2V6.66699C7.16682 6.94288 6.94288 7.16682 6.66699 7.16699H2C1.72397 7.16699 1.50018 6.94299 1.5 6.66699V2C1.5 1.72386 1.72386 1.5 2 1.5H6.66699ZM14 1.5C14.2761 1.5 14.5 1.72386 14.5 2V6.66699C14.4998 6.94299 14.276 7.16699 14 7.16699H9.33301C9.05712 7.16682 8.83318 6.94288 8.83301 6.66699V2C8.83301 1.72397 9.05702 1.50018 9.33301 1.5H14ZM2.5 6.16699H6.16699V2.5H2.5V6.16699ZM9.83301 6.16699H13.5V2.5H9.83301V6.16699Z" fill="currentColor"/>
</svg>
